<svg width="24" height="24" xmlns="http://www.w3.org/2000/svg" fill-rule="evenodd" clip-rule="evenodd"><path d="M12 0c6.623 0 12 5.377 12 12s-5.377 12-12 12-12-5.377-12-12 5.377-12 12-12zm6.997 20.486c2.444-2.019 4.003-5.072 4.003-8.486 0-6.071-4.929-11-11-11s-11 4.929-11 11c0 4.27 2.439 7.975 5.998 9.798v-3.228c0-.691-.441-.917-1.384-1.673-.698-.56-1.177-1.433-1.089-2.322.252-2.537.862-7.575.862-7.575l.909.003-.597 5.997h1.291l.005-6h1l-.002 6h1.003l-.001-6h1l.004 6 1.34.002-.675-6.002h.887c.002.011.675 5.008.951 7.55.098.902-.409 1.792-1.121 2.356-.95.751-1.382.967-1.382 1.669v4.243c.649.12 1.318.182 2.001.182 1.409 0 2.756-.265 3.994-.749l.001-3.251h-2.467c.802-6.996 3.103-12 4.66-12 .447 0 .804.357.807.851.008 1.164.004 6.814.002 12.635zm-7.563-6.486h-5.845c-.067.642-.26 1.387.651 2.117.938.754 1.758 1.231 1.758 2.453v3.678c.326.128.66.24 1.001.337v-4.01c0-1.237.811-1.7 1.761-2.453.944-.747.75-1.464.674-2.122zm6.561 7.222l.002-13.029c-1.14 1.352-2.563 4.206-3.31 9.809h2.308l-.001 3.8c.345-.176.679-.37 1.001-.58z"/></svg>